<?xml version="1.0" encoding="utf-8"?>
<svg xmlns="http://www.w3.org/2000/svg" viewBox="0 0 165 55" width="165" height="55">
  <!-- Texto MENTOR centralizado no topo -->
  <text x="50%" y="20" font-size="16" font-family="Arial, sans-serif" fill="rgb(223,224,235)" font-weight="700" text-anchor="middle">
    MENTOR
  </text>

  <!-- Engrenagem no canto esquerdo -->
  <path fill="#D8D8D8" stroke="#000000" transform="translate(5,30) scale(0.2)" d="M 341.424 175.1 L 345.376 175.1 L 346.21 181.136 A 10.497 10.497 0 1 0 348.565 182.111 L 353.423 178.433 L 356.217 181.227 L 352.539 186.085 A 10.497 10.497 0 1 0 353.514 188.44 L 359.55 189.274 L 359.55 193.226 L 353.514 194.06 A 10.497 10.497 0 1 0 352.539 196.415 L 356.217 201.273 L 353.423 204.067 L 348.565 200.389 A 10.497 10.497 0 1 0 346.21 201.364 L 345.376 207.4 L 341.424 207.4 L 340.59 201.364 A 10.497 10.497 0 1 0 338.235 200.389 L 333.377 204.067 L 330.583 201.273 L 334.261 196.415 A 10.497 10.497 0 1 0 333.286 194.06 L 327.25 193.226 L 327.25 189.274 L 333.286 188.44 A 10.497 10.497 0 1 0 334.261 186.085 L 330.583 181.227 L 333.377 178.433 L 338.235 182.111 A 10.497 10.497 0 1 0 340.59 181.136 Z M 343.4 186.405 A 4.845 4.845 0 0 0 343.4 196.095 A 4.845 4.845 0 0 0 343.4 186.405"/>

  <!-- Texto Milionário à direita da engrenagem -->
  <text x="35" y="35" font-size="12" font-family="Arial, sans-serif" fill="rgb(42,160,221)">
    Milionário
  </text>
</svg>
